<svg xmlns="http://www.w3.org/2000/svg" xmlns:xlink="http://www.w3.org/1999/xlink" width="500" zoomAndPan="magnify" viewBox="0 0 375 112.499997" height="150" preserveAspectRatio="xMidYMid meet" version="1.0"><defs><g/><clipPath id="7d3768ed78"><path d="M 266 9 L 303 9 L 303 45 L 266 45 Z M 266 9 " clip-rule="nonzero"/></clipPath><clipPath id="befd4de55b"><path d="M 283.800781 8.980469 L 302.554688 26.398438 L 285.136719 45.152344 L 266.382812 27.734375 Z M 283.800781 8.980469 " clip-rule="nonzero"/></clipPath><clipPath id="0d048af3cd"><path d="M 283.800781 8.980469 L 302.554688 26.398438 L 285.136719 45.152344 L 266.382812 27.734375 Z M 283.800781 8.980469 " clip-rule="nonzero"/></clipPath><clipPath id="d8698963a2"><path d="M 283.800781 8.980469 L 302.554688 26.398438 L 285.136719 45.152344 L 266.382812 27.734375 Z M 283.800781 8.980469 " clip-rule="nonzero"/></clipPath><clipPath id="becd0f2615"><path d="M 267 38 L 304 38 L 304 74 L 267 74 Z M 267 38 " clip-rule="nonzero"/></clipPath><clipPath id="9cd32bc6b5"><path d="M 284.863281 37.742188 L 303.617188 55.164062 L 286.199219 73.917969 L 267.445312 56.5 Z M 284.863281 37.742188 " clip-rule="nonzero"/></clipPath><clipPath id="57151a1f6f"><path d="M 284.863281 37.742188 L 303.617188 55.164062 L 286.199219 73.917969 L 267.445312 56.5 Z M 284.863281 37.742188 " clip-rule="nonzero"/></clipPath><clipPath id="07b3de1426"><path d="M 268 66 L 305 66 L 305 103 L 268 103 Z M 268 66 " clip-rule="nonzero"/></clipPath><clipPath id="c4efbc83fb"><path d="M 285.925781 66.507812 L 304.679688 83.925781 L 287.261719 102.679688 L 268.507812 85.261719 Z M 285.925781 66.507812 " clip-rule="nonzero"/></clipPath><clipPath id="cb8f7a4bc7"><path d="M 285.925781 66.507812 L 304.679688 83.925781 L 287.261719 102.679688 L 268.507812 85.261719 Z M 285.925781 66.507812 " clip-rule="nonzero"/></clipPath></defs><g fill="#0a0a0a" fill-opacity="1"><g transform="translate(6.535323, 62.263042)"><g><path d="M 23.703125 -2.28125 C 22.554688 -1.363281 21.066406 -0.65625 19.234375 -0.15625 C 17.410156 0.332031 15.164062 0.578125 12.5 0.578125 C 9.84375 0.578125 7.019531 0.335938 4.03125 -0.140625 L 4.03125 -31 C 7.050781 -31.488281 9.675781 -31.734375 11.90625 -31.734375 C 14.132812 -31.734375 15.960938 -31.519531 17.390625 -31.09375 C 18.816406 -30.675781 19.984375 -30.109375 20.890625 -29.390625 C 22.671875 -27.992188 23.5625 -26.191406 23.5625 -23.984375 C 23.5625 -21.773438 22.753906 -19.945312 21.140625 -18.5 C 23.046875 -17.90625 24.519531 -16.78125 25.5625 -15.125 C 26.519531 -13.644531 27 -12.003906 27 -10.203125 C 27 -8.398438 26.734375 -6.859375 26.203125 -5.578125 C 25.679688 -4.296875 24.847656 -3.195312 23.703125 -2.28125 Z M 10.234375 -19.359375 C 10.890625 -19.253906 11.707031 -19.203125 12.6875 -19.203125 C 13.675781 -19.203125 14.484375 -19.328125 15.109375 -19.578125 C 15.742188 -19.835938 16.234375 -20.164062 16.578125 -20.5625 C 17.140625 -21.195312 17.421875 -22.085938 17.421875 -23.234375 C 17.421875 -25.617188 16.015625 -26.8125 13.203125 -26.8125 C 12.015625 -26.8125 11.023438 -26.765625 10.234375 -26.671875 Z M 13.703125 -14.359375 C 12.390625 -14.359375 11.234375 -14.269531 10.234375 -14.09375 L 10.234375 -4.890625 C 11.328125 -4.609375 12.472656 -4.46875 13.671875 -4.46875 C 14.878906 -4.46875 15.9375 -4.613281 16.84375 -4.90625 C 17.757812 -5.195312 18.53125 -5.59375 19.15625 -6.09375 C 20.414062 -7.125 21.046875 -8.429688 21.046875 -10.015625 C 21.046875 -12.910156 18.597656 -14.359375 13.703125 -14.359375 Z M 13.703125 -14.359375 "/></g></g></g><g fill="#0a0a0a" fill-opacity="1"><g transform="translate(37.820956, 62.263042)"><g><path d="M 19.59375 -1.453125 C 17.375 -0.253906 15.367188 0.34375 13.578125 0.34375 C 11.785156 0.34375 10.25 0.175781 8.96875 -0.15625 C 7.6875 -0.488281 6.601562 -0.984375 5.71875 -1.640625 C 3.90625 -2.960938 3 -4.882812 3 -7.40625 C 3 -9.644531 4.109375 -11.515625 6.328125 -13.015625 C 8.722656 -14.640625 11.984375 -15.453125 16.109375 -15.453125 L 17.046875 -15.4375 C 17.234375 -15.414062 17.441406 -15.398438 17.671875 -15.390625 C 17.910156 -15.390625 18.125 -15.375 18.3125 -15.34375 C 18.1875 -17.832031 17.109375 -19.289062 15.078125 -19.71875 C 14.410156 -19.851562 13.695312 -19.921875 12.9375 -19.921875 C 12.175781 -19.921875 11.429688 -19.851562 10.703125 -19.71875 C 9.984375 -19.59375 9.28125 -19.421875 8.59375 -19.203125 C 7.082031 -18.710938 6 -18.15625 5.34375 -17.53125 L 5.265625 -17.578125 L 4.5625 -22.765625 C 7.320312 -24.210938 10.34375 -24.9375 13.625 -24.9375 C 18.71875 -24.9375 21.972656 -23.101562 23.390625 -19.4375 C 23.835938 -18.257812 24.0625 -16.941406 24.0625 -15.484375 L 24.0625 -7 C 24.0625 -5.1875 24.703125 -3.953125 25.984375 -3.296875 L 21.75 0.578125 C 20.863281 0.117188 20.144531 -0.554688 19.59375 -1.453125 Z M 18.328125 -11.125 C 17.910156 -11.195312 17.472656 -11.234375 17.015625 -11.234375 L 16.078125 -11.234375 C 12.628906 -11.234375 10.4375 -10.46875 9.5 -8.9375 C 9.21875 -8.488281 9.078125 -8.015625 9.078125 -7.515625 C 9.078125 -7.015625 9.164062 -6.570312 9.34375 -6.1875 C 9.53125 -5.8125 9.832031 -5.5 10.25 -5.25 C 11.0625 -4.78125 12.265625 -4.546875 13.859375 -4.546875 C 15.460938 -4.546875 16.960938 -4.925781 18.359375 -5.6875 C 18.335938 -5.863281 18.328125 -6.046875 18.328125 -6.234375 Z M 18.328125 -11.125 "/></g></g></g><g fill="#0a0a0a" fill-opacity="1"><g transform="translate(69.012939, 62.263042)"><g><path d="M 18.09375 -2.125 C 16.101562 -0.476562 13.925781 0.34375 11.5625 0.34375 C 9.039062 0.34375 7.0625 -0.503906 5.625 -2.203125 C 4.25 -3.859375 3.5625 -6.128906 3.5625 -9.015625 L 3.5625 -18.3125 C 3.5625 -21.4375 3.492188 -23.226562 3.359375 -23.6875 C 3.222656 -24.144531 3.125 -24.4375 3.0625 -24.5625 C 3.78125 -24.5 4.53125 -24.46875 5.3125 -24.46875 L 7.265625 -24.46875 C 7.773438 -24.46875 8.453125 -24.488281 9.296875 -24.53125 L 9.296875 -10.984375 C 9.296875 -7.765625 10.171875 -5.898438 11.921875 -5.390625 C 12.453125 -5.234375 13.03125 -5.15625 13.65625 -5.15625 C 15.488281 -5.15625 16.96875 -5.828125 18.09375 -7.171875 L 18.09375 -24.46875 L 23.90625 -24.46875 L 23.90625 -3 C 23.90625 -1.625 23.96875 -0.625 24.09375 0 L 18.09375 0 Z M 18.09375 -2.125 "/></g></g></g><g fill="#0a0a0a" fill-opacity="1"><g transform="translate(100.204919, 62.263042)"><g><path d="M 19.59375 -1.453125 C 17.375 -0.253906 15.367188 0.34375 13.578125 0.34375 C 11.785156 0.34375 10.25 0.175781 8.96875 -0.15625 C 7.6875 -0.488281 6.601562 -0.984375 5.71875 -1.640625 C 3.90625 -2.960938 3 -4.882812 3 -7.40625 C 3 -9.644531 4.109375 -11.515625 6.328125 -13.015625 C 8.722656 -14.640625 11.984375 -15.453125 16.109375 -15.453125 L 17.046875 -15.4375 C 17.234375 -15.414062 17.441406 -15.398438 17.671875 -15.390625 C 17.910156 -15.390625 18.125 -15.375 18.3125 -15.34375 C 18.1875 -17.832031 17.109375 -19.289062 15.078125 -19.71875 C 14.410156 -19.851562 13.695312 -19.921875 12.9375 -19.921875 C 12.175781 -19.921875 11.429688 -19.851562 10.703125 -19.71875 C 9.984375 -19.59375 9.28125 -19.421875 8.59375 -19.203125 C 7.082031 -18.710938 6 -18.15625 5.34375 -17.53125 L 5.265625 -17.578125 L 4.5625 -22.765625 C 7.320312 -24.210938 10.34375 -24.9375 13.625 -24.9375 C 18.71875 -24.9375 21.972656 -23.101562 23.390625 -19.4375 C 23.835938 -18.257812 24.0625 -16.941406 24.0625 -15.484375 L 24.0625 -7 C 24.0625 -5.1875 24.703125 -3.953125 25.984375 -3.296875 L 21.75 0.578125 C 20.863281 0.117188 20.144531 -0.554688 19.59375 -1.453125 Z M 18.328125 -11.125 C 17.910156 -11.195312 17.472656 -11.234375 17.015625 -11.234375 L 16.078125 -11.234375 C 12.628906 -11.234375 10.4375 -10.46875 9.5 -8.9375 C 9.21875 -8.488281 9.078125 -8.015625 9.078125 -7.515625 C 9.078125 -7.015625 9.164062 -6.570312 9.34375 -6.1875 C 9.53125 -5.8125 9.832031 -5.5 10.25 -5.25 C 11.0625 -4.78125 12.265625 -4.546875 13.859375 -4.546875 C 15.460938 -4.546875 16.960938 -4.925781 18.359375 -5.6875 C 18.335938 -5.863281 18.328125 -6.046875 18.328125 -6.234375 Z M 18.328125 -11.125 "/></g></g></g><g fill="#0a0a0a" fill-opacity="1"><g transform="translate(131.396906, 62.263042)"><g><path d="M 9.59375 -3 C 9.59375 -1.625 9.65625 -0.625 9.78125 0 L 3.90625 0 L 3.90625 -24.46875 L 9.59375 -24.46875 L 9.59375 -22.390625 C 11.65625 -24.085938 13.859375 -24.9375 16.203125 -24.9375 C 18.765625 -24.9375 20.804688 -24.066406 22.328125 -22.328125 C 23.859375 -20.585938 24.625 -18.296875 24.625 -15.453125 L 24.625 -6.140625 C 24.625 -3.492188 24.660156 -1.90625 24.734375 -1.375 C 24.816406 -0.84375 24.925781 -0.5 25.0625 -0.34375 C 25.195312 -0.1875 25.3125 -0.0507812 25.40625 0.0625 L 25.359375 0.15625 C 24.097656 0.0507812 23.175781 0 22.59375 0 L 20.953125 0 C 20.453125 0 19.78125 0.0195312 18.9375 0.0625 L 18.9375 -12.6875 C 18.9375 -17.257812 17.550781 -19.546875 14.78125 -19.546875 C 12.71875 -19.546875 10.988281 -18.484375 9.59375 -16.359375 Z M 9.59375 -3 "/></g></g></g><g fill="#0a0a0a" fill-opacity="1"><g transform="translate(162.682542, 62.263042)"><g><path d="M 14.3125 -5.15625 C 16.320312 -5.15625 17.703125 -5.675781 18.453125 -6.71875 L 18.640625 -6.71875 L 18.703125 -1.28125 C 17.941406 -0.519531 16.523438 -0.015625 14.453125 0.234375 C 13.890625 0.304688 13.1875 0.34375 12.34375 0.34375 C 11.507812 0.34375 10.601562 0.191406 9.625 -0.109375 C 8.65625 -0.421875 7.828125 -0.929688 7.140625 -1.640625 C 5.722656 -3.085938 5.015625 -5.359375 5.015625 -8.453125 L 5.015625 -19.078125 L 1.46875 -19.078125 C 1.457031 -19.535156 1.453125 -20 1.453125 -20.46875 L 1.453125 -24.0625 C 1.453125 -24.332031 1.457031 -24.46875 1.46875 -24.46875 L 5.015625 -24.46875 L 5.015625 -31.140625 L 10.75 -31.140625 L 10.75 -24.46875 L 17.1875 -24.46875 L 17.1875 -19.078125 L 10.75 -19.078125 L 10.75 -9.53125 C 10.75 -7.082031 11.425781 -5.6875 12.78125 -5.34375 C 13.21875 -5.21875 13.726562 -5.15625 14.3125 -5.15625 Z M 14.3125 -5.15625 "/></g></g></g><g fill="#0a0a0a" fill-opacity="1"><g transform="translate(185.961146, 62.263042)"><g><path d="M 8.96875 -2.625 C 8.96875 -1.28125 9 -0.40625 9.0625 0 L 3.234375 0 L 3.234375 -24.46875 L 8.96875 -24.46875 L 8.96875 -22.671875 C 10.289062 -24.179688 11.679688 -24.9375 13.140625 -24.9375 C 14.609375 -24.9375 15.757812 -24.753906 16.59375 -24.390625 L 16.171875 -18.09375 L 16.078125 -18.03125 C 15.535156 -19 14.40625 -19.484375 12.6875 -19.484375 C 12.03125 -19.484375 11.363281 -19.257812 10.6875 -18.8125 C 10.007812 -18.363281 9.4375 -17.773438 8.96875 -17.046875 Z M 8.96875 -2.625 "/></g></g></g><g fill="#0a0a0a" fill-opacity="1"><g transform="translate(205.236234, 62.263042)"><g><path d="M 19.59375 -1.453125 C 17.375 -0.253906 15.367188 0.34375 13.578125 0.34375 C 11.785156 0.34375 10.25 0.175781 8.96875 -0.15625 C 7.6875 -0.488281 6.601562 -0.984375 5.71875 -1.640625 C 3.90625 -2.960938 3 -4.882812 3 -7.40625 C 3 -9.644531 4.109375 -11.515625 6.328125 -13.015625 C 8.722656 -14.640625 11.984375 -15.453125 16.109375 -15.453125 L 17.046875 -15.4375 C 17.234375 -15.414062 17.441406 -15.398438 17.671875 -15.390625 C 17.910156 -15.390625 18.125 -15.375 18.3125 -15.34375 C 18.1875 -17.832031 17.109375 -19.289062 15.078125 -19.71875 C 14.410156 -19.851562 13.695312 -19.921875 12.9375 -19.921875 C 12.175781 -19.921875 11.429688 -19.851562 10.703125 -19.71875 C 9.984375 -19.59375 9.28125 -19.421875 8.59375 -19.203125 C 7.082031 -18.710938 6 -18.15625 5.34375 -17.53125 L 5.265625 -17.578125 L 4.5625 -22.765625 C 7.320312 -24.210938 10.34375 -24.9375 13.625 -24.9375 C 18.71875 -24.9375 21.972656 -23.101562 23.390625 -19.4375 C 23.835938 -18.257812 24.0625 -16.941406 24.0625 -15.484375 L 24.0625 -7 C 24.0625 -5.1875 24.703125 -3.953125 25.984375 -3.296875 L 21.75 0.578125 C 20.863281 0.117188 20.144531 -0.554688 19.59375 -1.453125 Z M 18.328125 -11.125 C 17.910156 -11.195312 17.472656 -11.234375 17.015625 -11.234375 L 16.078125 -11.234375 C 12.628906 -11.234375 10.4375 -10.46875 9.5 -8.9375 C 9.21875 -8.488281 9.078125 -8.015625 9.078125 -7.515625 C 9.078125 -7.015625 9.164062 -6.570312 9.34375 -6.1875 C 9.53125 -5.8125 9.832031 -5.5 10.25 -5.25 C 11.0625 -4.78125 12.265625 -4.546875 13.859375 -4.546875 C 15.460938 -4.546875 16.960938 -4.925781 18.359375 -5.6875 C 18.335938 -5.863281 18.328125 -6.046875 18.328125 -6.234375 Z M 18.328125 -11.125 "/></g></g></g><g fill="#0a0a0a" fill-opacity="1"><g transform="translate(236.428208, 62.263042)"><g><path d="M 9.875 -6.515625 C 9.300781 -5.742188 9.015625 -5.132812 9.015625 -4.6875 C 9.015625 -4.25 9.082031 -3.90625 9.21875 -3.65625 C 9.363281 -3.414062 9.671875 -3.1875 10.140625 -2.96875 C 11.171875 -2.488281 12.863281 -2.0625 15.21875 -1.6875 C 17.570312 -1.320312 19.414062 -0.867188 20.75 -0.328125 C 22.09375 0.210938 23.175781 0.882812 24 1.6875 C 25.539062 3.195312 26.3125 5.34375 26.3125 8.125 C 26.3125 10.90625 25.335938 13.039062 23.390625 14.53125 C 21.441406 16.019531 18.546875 16.765625 14.703125 16.765625 C 10.828125 16.765625 7.707031 15.921875 5.34375 14.234375 C 2.96875 12.546875 1.75 10.304688 1.6875 7.515625 C 1.59375 4.265625 2.863281 1.914062 5.5 0.46875 C 4.78125 -0.125 4.300781 -0.820312 4.0625 -1.625 C 3.820312 -2.425781 3.703125 -3.34375 3.703125 -4.375 C 3.703125 -6.113281 4.457031 -7.582031 5.96875 -8.78125 C 4.207031 -10.445312 3.328125 -12.523438 3.328125 -15.015625 C 3.328125 -17.785156 4.328125 -20.109375 6.328125 -21.984375 C 8.429688 -23.953125 11.160156 -24.9375 14.515625 -24.9375 C 16.273438 -24.9375 17.929688 -24.609375 19.484375 -23.953125 C 21.515625 -24.804688 23.003906 -25.554688 23.953125 -26.203125 C 24.898438 -26.859375 25.507812 -27.332031 25.78125 -27.625 L 25.921875 -27.609375 C 26.054688 -27.234375 26.21875 -26.703125 26.40625 -26.015625 L 26.828125 -24.328125 C 27.203125 -22.941406 27.429688 -21.988281 27.515625 -21.46875 C 26.828125 -20.71875 25.617188 -20.1875 23.890625 -19.875 C 24.554688 -18.582031 24.890625 -17.207031 24.890625 -15.75 C 24.890625 -14.300781 24.640625 -12.988281 24.140625 -11.8125 C 23.640625 -10.632812 22.929688 -9.597656 22.015625 -8.703125 C 19.960938 -6.785156 17.351562 -5.828125 14.1875 -5.828125 C 12.644531 -5.828125 11.207031 -6.054688 9.875 -6.515625 Z M 9.265625 -17.046875 C 9.046875 -16.484375 8.9375 -15.910156 8.9375 -15.328125 C 8.9375 -14.753906 9.054688 -14.203125 9.296875 -13.671875 C 9.546875 -13.140625 9.90625 -12.664062 10.375 -12.25 C 11.414062 -11.3125 12.78125 -10.84375 14.46875 -10.84375 C 15.75 -10.84375 16.859375 -11.269531 17.796875 -12.125 C 18.773438 -13.0625 19.265625 -14.1875 19.265625 -15.5 C 19.265625 -16.820312 18.816406 -17.890625 17.921875 -18.703125 C 17.035156 -19.515625 15.816406 -19.921875 14.265625 -19.921875 C 11.679688 -19.921875 10.015625 -18.960938 9.265625 -17.046875 Z M 15.015625 11.796875 C 18.847656 11.796875 20.765625 10.457031 20.765625 7.78125 C 20.765625 6.5 20.140625 5.46875 18.890625 4.6875 C 17.484375 3.789062 15.070312 3.09375 11.65625 2.59375 L 10.4375 2.390625 C 9.40625 2.929688 8.648438 3.628906 8.171875 4.484375 C 7.691406 5.347656 7.453125 6.164062 7.453125 6.9375 C 7.460938 7.707031 7.644531 8.375 8 8.9375 C 8.363281 9.5 8.863281 9.992188 9.5 10.421875 C 10.925781 11.335938 12.765625 11.796875 15.015625 11.796875 Z M 15.015625 11.796875 "/></g></g></g><g fill="#0a0a0a" fill-opacity="1"><g transform="translate(267.622001, 62.263042)"><g/></g></g><g fill="#0a0a0a" fill-opacity="1"><g transform="translate(286.780023, 62.263042)"><g/></g></g><g fill="#0a0a0a" fill-opacity="1"><g transform="translate(305.939743, 62.263042)"><g><path d="M 11.609375 0.578125 C 9.085938 0.578125 6.707031 0.378906 4.46875 -0.015625 L 4.46875 -31.359375 C 6.53125 -31.609375 8.921875 -31.734375 11.640625 -31.734375 C 14.367188 -31.734375 16.835938 -31.359375 19.046875 -30.609375 C 21.253906 -29.867188 23.097656 -28.8125 24.578125 -27.4375 C 27.578125 -24.695312 29.078125 -20.851562 29.078125 -15.90625 C 29.078125 -10.363281 27.40625 -6.15625 24.0625 -3.28125 C 21.070312 -0.707031 16.921875 0.578125 11.609375 0.578125 Z M 10.5625 -5.125 C 11.570312 -4.9375 12.582031 -4.84375 13.59375 -4.84375 C 14.613281 -4.84375 15.707031 -5.039062 16.875 -5.4375 C 18.050781 -5.84375 19.066406 -6.46875 19.921875 -7.3125 C 21.765625 -9.082031 22.6875 -11.671875 22.6875 -15.078125 C 22.6875 -20.671875 20.648438 -24.101562 16.578125 -25.375 C 15.234375 -25.800781 13.679688 -26.015625 11.921875 -26.015625 L 11.28125 -26.015625 C 11.050781 -26.015625 10.8125 -26.003906 10.5625 -25.984375 Z M 10.5625 -5.125 "/></g></g></g><g fill="#0a0a0a" fill-opacity="1"><g transform="translate(341.135243, 62.263042)"><g><path d="M 19.6875 -5.625 C 20.65625 -5.625 21.328125 -5.71875 21.703125 -5.90625 L 21.796875 -5.875 L 21.5625 0 L 4.03125 0 L 4.03125 -31.3125 C 4.445312 -31.28125 4.914062 -31.253906 5.4375 -31.234375 L 7.078125 -31.1875 C 8.160156 -31.15625 9.34375 -31.140625 10.625 -31.140625 C 14.195312 -31.140625 17.734375 -31.203125 21.234375 -31.328125 C 21.066406 -29.953125 20.984375 -28.117188 20.984375 -25.828125 C 20.984375 -25.578125 21 -25.390625 21.03125 -25.265625 L 20.984375 -25.1875 C 20.171875 -25.425781 19.015625 -25.546875 17.515625 -25.546875 L 10.140625 -25.546875 L 10.140625 -19.578125 L 15.6875 -19.578125 C 17.40625 -19.578125 18.4375 -19.625 18.78125 -19.71875 L 18.84375 -13.9375 C 18.09375 -14.007812 17.128906 -14.046875 15.953125 -14.046875 L 10.140625 -14.046875 L 10.140625 -5.625 Z M 19.6875 -5.625 "/></g></g></g><g fill="#323232" fill-opacity="1"><g transform="translate(6.535323, 94.703658)"><g><path d="M 0.34375 0 L 3.8125 0 L 4.40625 -1.65625 L 9.484375 -1.65625 L 10.109375 0 L 13.5625 0 L 7.109375 -15.875 L 6.796875 -15.875 Z M 5.53125 -4.515625 L 6.96875 -8.5 L 8.359375 -4.515625 Z M 5.53125 -4.515625 "/></g></g></g><g fill="#323232" fill-opacity="1"><g transform="translate(20.967606, 94.703658)"><g><path d="M 4.78125 0 L 4.78125 -15.3125 L 1.71875 -15.3125 L 1.71875 0 Z M 4.78125 0 "/></g></g></g><g fill="#323232" fill-opacity="1"><g transform="translate(27.926926, 94.703658)"><g><path d="M 0.8125 -8.734375 L 0.8125 -5.890625 L 8.609375 -5.890625 L 8.609375 -8.734375 Z M 0.8125 -8.734375 "/></g></g></g><g fill="#323232" fill-opacity="1"><g transform="translate(38.098118, 94.703658)"><g><path d="M 6.46875 0.328125 L 7.15625 0.328125 L 13.5 -15.3125 L 9.96875 -15.3125 L 7.90625 -10.109375 L 6.8125 -7.046875 L 5.703125 -10.21875 L 3.65625 -15.3125 L 0.125 -15.3125 Z M 6.46875 0.328125 "/></g></g></g><g fill="#323232" fill-opacity="1"><g transform="translate(52.187789, 94.703658)"><g><path d="M 0.34375 0 L 3.8125 0 L 4.40625 -1.65625 L 9.484375 -1.65625 L 10.109375 0 L 13.5625 0 L 7.109375 -15.875 L 6.796875 -15.875 Z M 5.53125 -4.515625 L 6.96875 -8.5 L 8.359375 -4.515625 Z M 5.53125 -4.515625 "/></g></g></g><g fill="#323232" fill-opacity="1"><g transform="translate(66.620074, 94.703658)"><g><path d="M 1.71875 -15.3125 L 1.71875 0 L 9.640625 0 L 9.640625 -3.0625 L 4.78125 -3.0625 L 4.78125 -15.3125 Z M 1.71875 -15.3125 "/></g></g></g><g fill="#323232" fill-opacity="1"><g transform="translate(77.626352, 94.703658)"><g><path d="M 4.78125 0 L 4.78125 -15.3125 L 1.71875 -15.3125 L 1.71875 0 Z M 4.78125 0 "/></g></g></g><g fill="#323232" fill-opacity="1"><g transform="translate(84.585674, 94.703658)"><g><path d="M 6.28125 -15.3125 L 1.71875 -15.3125 L 1.71875 0 L 6.28125 0 C 16.46875 0 16.46875 -15.3125 6.28125 -15.3125 Z M 6.28125 -12.25 C 12.234375 -12.25 12.234375 -3.0625 6.28125 -3.0625 L 4.78125 -3.0625 L 4.78125 -12.25 Z M 6.28125 -12.25 "/></g></g></g><g fill="#323232" fill-opacity="1"><g transform="translate(100.109992, 94.703658)"><g><path d="M 4.78125 0 L 4.78125 -15.3125 L 1.71875 -15.3125 L 1.71875 0 Z M 4.78125 0 "/></g></g></g><g fill="#323232" fill-opacity="1"><g transform="translate(107.069314, 94.703658)"><g><path d="M 9.640625 0 L 9.640625 -3.0625 L 4.78125 -3.0625 L 4.78125 -6.125 L 8.796875 -6.125 L 8.796875 -9.1875 L 4.78125 -9.1875 L 4.78125 -12.25 L 9.375 -12.25 L 9.375 -15.3125 L 1.71875 -15.3125 L 1.71875 0 Z M 9.640625 0 "/></g></g></g><g fill="#323232" fill-opacity="1"><g transform="translate(118.311134, 94.703658)"><g><path d="M 9.34375 0 L 12.8125 0 L 9.25 -6.3125 C 13.75 -7.625 13.21875 -15.3125 7.75 -15.3125 L 1.71875 -15.3125 L 1.71875 0 L 4.78125 0 L 4.78125 -5.84375 L 6.25 -5.84375 Z M 4.78125 -8.828125 L 4.78125 -12.25 L 7.46875 -12.25 C 9.546875 -12.25 9.546875 -8.828125 7.46875 -8.828125 Z M 4.78125 -8.828125 "/></g></g></g><g fill="#323232" fill-opacity="1"><g transform="translate(131.886907, 94.703658)"><g><path d="M 12.703125 -5.328125 L 12.703125 -15.3125 L 9.65625 -15.3125 L 9.65625 -5.359375 C 9.65625 -2.140625 4.6875 -2.140625 4.6875 -5.359375 L 4.6875 -15.3125 L 1.625 -15.3125 L 1.625 -5.328125 C 1.625 1.953125 12.703125 1.953125 12.703125 -5.328125 Z M 12.703125 -5.328125 "/></g></g></g><g fill="#323232" fill-opacity="1"><g transform="translate(146.704614, 94.703658)"><g><path d="M 4.78125 -8.328125 L 12.53125 0.328125 L 13.34375 0.328125 L 13.34375 -15.296875 L 10.265625 -15.296875 L 10.265625 -6.640625 L 2.53125 -15.640625 L 1.71875 -15.640625 L 1.71875 0 L 4.78125 0 Z M 4.78125 -8.328125 "/></g></g></g><g fill="#323232" fill-opacity="1"><g transform="translate(162.228932, 94.703658)"><g><path d="M 12.765625 -0.9375 L 12.765625 -7.671875 L 9.65625 -7.671875 L 9.65625 -3.0625 C 9.375 -3.015625 9.078125 -2.984375 8.796875 -2.984375 C 2.890625 -2.984375 2.609375 -12.125 8.796875 -12.34375 C 10.4375 -12.375 11.421875 -12.046875 12.015625 -11.78125 L 12.375 -14.890625 C 12.109375 -14.96875 10.625 -15.515625 8.796875 -15.4375 C -1.828125 -15.0625 -1.3125 0.078125 8.796875 0.078125 C 10.265625 0.078125 11.59375 -0.28125 12.765625 -0.9375 Z M 12.765625 -0.9375 "/></g></g></g><g clip-path="url(#7d3768ed78)"><g clip-path="url(#befd4de55b)"><g clip-path="url(#0d048af3cd)"><g clip-path="url(#d8698963a2)"><path fill="#000000" d="M 301.886719 25.777344 L 284.46875 9.601562 C 284.101562 9.257812 283.523438 9.28125 283.179688 9.652344 L 267.003906 27.066406 C 266.660156 27.4375 266.683594 28.015625 267.050781 28.359375 L 284.464844 44.53125 C 284.835938 44.875 285.414062 44.855469 285.757812 44.484375 L 301.933594 27.070312 C 302.277344 26.699219 302.253906 26.121094 301.886719 25.777344 Z M 301.886719 25.777344 " fill-opacity="1" fill-rule="nonzero"/></g></g></g></g><g clip-path="url(#becd0f2615)"><g clip-path="url(#9cd32bc6b5)"><g clip-path="url(#57151a1f6f)"><path fill="#ff3131" d="M 303.113281 54.695312 L 285.539062 38.371094 C 285.164062 38.023438 284.582031 38.046875 284.234375 38.421875 L 267.914062 55.996094 C 267.566406 56.367188 267.585938 56.953125 267.960938 57.296875 L 285.535156 73.621094 C 285.90625 73.96875 286.492188 73.945312 286.839844 73.574219 L 303.160156 56 C 303.507812 55.625 303.484375 55.042969 303.113281 54.695312 Z M 303.113281 54.695312 " fill-opacity="1" fill-rule="nonzero"/></g></g></g><g clip-path="url(#07b3de1426)"><g clip-path="url(#c4efbc83fb)"><g clip-path="url(#cb8f7a4bc7)"><path fill="#ffde59" d="M 304.175781 83.457031 L 286.601562 67.136719 C 286.226562 66.789062 285.644531 66.808594 285.296875 67.183594 L 268.972656 84.757812 C 268.625 85.132812 268.648438 85.714844 269.023438 86.0625 L 286.597656 102.382812 C 286.96875 102.730469 287.554688 102.707031 287.902344 102.335938 L 304.222656 84.761719 C 304.570312 84.386719 304.546875 83.804688 304.175781 83.457031 Z M 304.175781 83.457031 " fill-opacity="1" fill-rule="nonzero"/></g></g></g></svg>